# xmcd
# Track frame offsets:
# 150
# 10570
# 23117
# 39245
# 52102
# 67825
# 83210
# 96690
# 107537
# 120510
# 133710
# 147000
# 167325
# 182902
# 197445
# 210360
#
# Disc length: 2947 seconds
# Revision: 0
# Processed by: cddbd v1.5.1PL0 Copyright (c) Steve Scherf et al.
# Submitted via: VisiTrax 2.9.10.228 - For more info visit www.synapsa.com
#
DISCID=c90b8110
DTITLE=Schneider.Rita. - Rita Raves On !
DYEAR=1999
DGENRE=Comedy
TTITLE0=I Live In The Lucky Country.
TTITLE1=Directions.
TTITLE2=I Wanna Be An Aussie In Australia.
TTITLE3=Line Dancin' Man.
TTITLE4=Love Me Now While I'm Alive.
TTITLE5=Cootamundra Tumbarumba Stockinbingal Dance
TTITLE6=I'm Politically Correct.
TTITLE7=Is 'E An Aussie ?.
TTITLE8=Never Trust A Man.
TTITLE9=She's Got The Neatest.
TTITLE10=Our Bea Miles.
TTITLE11=Grande Ole Opry House On Opening Night.The.
TTITLE12=Back To The Bush.
TTITLE13=Woodstock Queen. The.
TTITLE14=Stuttering Flo From Bangalow.
TTITLE15=Thing.The.
EXTD=
EXTT0=
EXTT1=
EXTT2=
EXTT3=
EXTT4=
EXTT5=
EXTT6=
EXTT7=
EXTT8=
EXTT9=
EXTT10=
EXTT11=
EXTT12=
EXTT13=
EXTT14=
EXTT15=
PLAYORDER=
